<svg xmlns="http://www.w3.org/2000/svg" version="1.1" width="355" height="281"><defs><filter id="bevelFilter" x0="-50%" y0="-50%" width="200%" height="200%"><feGaussianBlur result="blur-1" in="SourceAlpha" stdDeviation="1 1"/><feFlood result="flood-2" in="undefined" flood-color="#fff" flood-opacity="0.15"/><feOffset result="offset-3" in="blur-1" dx="1" dy="1"/><feComposite result="comp-4" operator="arithmetic" in="SourceAlpha" in2="offset-3" k2="1" k3="-1"/><feComposite result="comp-5" operator="in" in="flood-2" in2="comp-4"/><feFlood result="flood-6" in="undefined" flood-color="#000" flood-opacity="0.7"/><feOffset result="offset-7" in="blur-1" dx="-1" dy="-1"/><feComposite result="comp-8" operator="arithmetic" in="SourceAlpha" in2="offset-7" k2="1" k3="-1"/><feComposite result="comp-9" operator="in" in="flood-6" in2="comp-8"/><feMerge result="merge-10"><feMergeNode in="SourceGraphic"/><feMergeNode in="comp-5"/><feMergeNode in="comp-9"/></feMerge></filter><filter id="inputBevelFilter" x0="-50%" y0="-50%" width="200%" height="200%"><feGaussianBlur result="blur-1" in="SourceAlpha" stdDeviation="1 1"/><feFlood result="flood-2" in="undefined" flood-color="#fff" flood-opacity="0.15"/><feOffset result="offset-3" in="blur-1" dx="-1" dy="-1"/><feComposite result="comp-4" operator="arithmetic" in="SourceAlpha" in2="offset-3" k2="1" k3="-1"/><feComposite result="comp-5" operator="in" in="flood-2" in2="comp-4"/><feFlood result="flood-6" in="undefined" flood-color="#000" flood-opacity="0.7"/><feOffset result="offset-7" in="blur-1" dx="1" dy="1"/><feComposite result="comp-8" operator="arithmetic" in="SourceAlpha" in2="offset-7" k2="1" k3="-1"/><feComposite result="comp-9" operator="in" in="flood-6" in2="comp-8"/><feMerge result="merge-10"><feMergeNode in="SourceGraphic"/><feMergeNode in="comp-5"/><feMergeNode in="comp-9"/></feMerge></filter><filter id="inputDarkFilter" x0="-50%" y0="-50%" width="200%" height="200%"><feFlood result="flood-1" in="undefined" flood-color="#000" flood-opacity="0.2"/><feComposite result="comp-2" operator="in" in="flood-1" in2="SourceAlpha"/><feMerge result="merge-3"><feMergeNode in="SourceGraphic"/><feMergeNode in="comp-2"/></feMerge></filter><path d="M1.504 21L0 19.493 4.567 0h1.948l-.5 2.418s1.002-.502 3.006 0c2.006.503 3.008 2.01 6.517 2.01 3.508 0 4.463-.545 4.463-.545l-.823 9.892s-2.137 1.005-5.144.696c-3.007-.307-3.007-2.007-6.014-2.51-3.008-.502-4.512.503-4.512.503L1.504 21z" fill="#3f8d15" id="greenFlag"/><path d="M6.724 0C3.01 0 0 2.91 0 6.5c0 2.316 1.253 4.35 3.14 5.5H5.17v-1.256C3.364 10.126 2.07 8.46 2.07 6.5 2.07 4.015 4.152 2 6.723 2c1.14 0 2.184.396 2.993 1.053L8.31 4.13c-.45.344-.398.826.11 1.08L15 8.5 13.858.992c-.083-.547-.514-.714-.963-.37l-1.532 1.172A6.825 6.825 0 0 0 6.723 0z" fill="#fff" id="turnRight"/><path d="M3.637 1.794A6.825 6.825 0 0 1 8.277 0C11.99 0 15 2.91 15 6.5c0 2.316-1.253 4.35-3.14 5.5H9.83v-1.256c1.808-.618 3.103-2.285 3.103-4.244 0-2.485-2.083-4.5-4.654-4.5-1.14 0-2.184.396-2.993 1.053L6.69 4.13c.45.344.398.826-.11 1.08L0 8.5 1.142.992c.083-.547.514-.714.963-.37l1.532 1.172z" fill="#fff" id="turnLeft"/><path d="M0 0L4 4L0 8Z" fill="#111" id="addInput"/><path d="M4 0L4 8L0 4Z" fill="#111" id="delInput"/><g id="loopArrow"><path d="M8 0l2 -2l0 -3l3 0l-4 -5l-4 5l3 0l0 3l-8 0l0 2" fill="#000" opacity="0.3"/><path d="M8 0l2 -2l0 -3l3 0l-4 -5l-4 5l3 0l0 3l-8 0l0 2" fill="#fff" opacity="0.9" transform="translate(-1 -1)"/></g></defs><g><g transform="translate(0 0)"><g transform="translate(2 0)"><path d="M 0 12 L 0 12 A 80 80 0 0 1 80 10 L 92 10 L 95 13 L 95 35 L 92 38 L 27 38 L 24 41 L 16 41 L 13 38 L 3 38 L 0 35 Z" class="sb-events sb-bevel"/><text x="0" y="10" class="sb-label " transform="translate(6 18)">when</text><use href="#greenFlag" transform="translate(34 12)"/><text x="0" y="10" class="sb-label " transform="translate(58 18)">clicked</text></g><g transform="translate(2 38)"><path d="M 0 3 L 3 0 L 13 0 L 16 3 L 24 3 L 27 0 L 36 0 L 39 3 L 39 19 L 36 22 L 27 22 L 24 25 L 16 25 L 13 22 L 3 22 L 0 19 Z" class="sb-pen sb-bevel"/><text x="0" y="10" class="sb-label " transform="translate(6 5)">clear</text></g><g transform="translate(2 60)"><path d="M 0 3 L 3 0 L 13 0 L 16 3 L 24 3 L 27 0 L 80 0 L 83 3 L 83 19 L 80 22 L 42 22 L 39 25 L 31 25 L 28 22 L 17 22 L 15 24 L 15 203 L 17 205 L 80 205 L 83 208 L 83 218 L 80 221 L 3 221 L 0 218" class="sb-control sb-bevel"/><text x="0" y="10" class="sb-label " transform="translate(6 5)">forever</text><use href="#loopArrow" transform="translate(68 218)"/><g transform="translate(15 22)"><g transform="translate(0 0)"><path d="M 0 3 L 3 0 L 13 0 L 16 3 L 24 3 L 27 0 L 54 0 L 57 3 L 57 19 L 54 22 L 27 22 L 24 25 L 16 25 L 13 22 L 3 22 L 0 19 Z" class="sb-pen sb-bevel"/><text x="0" y="10" class="sb-label " transform="translate(6 5)">pen</text><text x="0" y="10" class="sb-label " transform="translate(27 5)">down</text></g><g transform="translate(0 22)"><path d="M 0 3 L 3 0 L 13 0 L 16 3 L 24 3 L 27 0 L 333 0 L 336 3 L 336 28 L 333 31 L 42 31 L 39 34 L 31 34 L 28 31 L 17 31 L 15 33 L 15 51 L 17 53 L 333 53 L 336 56 L 336 68 L 333 71 L 42 71 L 39 74 L 31 74 L 28 71 L 17 71 L 15 73 L 15 95 L 17 97 L 333 97 L 336 100 L 336 110 L 333 113 L 27 113 L 24 116 L 16 116 L 13 113 L 3 113 L 0 110" class="sb-control sb-bevel"/><text x="0" y="10" class="sb-label " transform="translate(6 9)">if</text><g transform="translate(30 2)"><path d="M 13 0 L 264 0 277 13 L 277 13 264 26 L 13 26 0 13 L 0 13 13 0 Z" class="sb-operators sb-bevel"/><g transform="translate(5 2)"><path d="M 10.5 0 L 74.5 0 85 10.5 L 85 10.5 74.5 21 L 10.5 21 0 10.5 L 0 10.5 10.5 0 Z" class="sb-sensing sb-bevel"/><text x="0" y="10" class="sb-label " transform="translate(11 4)">mouse</text><text x="0" y="10" class="sb-label " transform="translate(45 4)">down?</text></g><text x="0" y="10" class="sb-label " transform="translate(94 6)">and</text><g transform="translate(115 2)"><path d="M 10.5 0 L 146.5 0 157 10.5 L 157 10.5 146.5 21 L 10.5 21 0 10.5 L 0 10.5 10.5 0 Z" class="sb-sensing sb-bevel"/><text x="0" y="10" class="sb-label " transform="translate(11 4)">touching</text><g transform="translate(53 3)"><g width="83" height="14" class="sb-input sb-input-dropdown"><rect x="0" y="0" width="83" height="14" class="sb-sensing sb-darker"/></g><text x="0" y="10" class="sb-label sb-literal-dropdown" transform="translate(4 0)">mouse-pointer</text><polygon points="7 0 3.5 4 0 0" fill="#000" opacity="0.6" transform="translate(73 5)"/></g><text x="0" y="10" class="sb-label " transform="translate(140 4)">?</text></g></g><text x="0" y="10" class="sb-label " transform="translate(311 9)">then</text><g transform="translate(15 31)"><g transform="translate(0 0)"><path d="M 0 3 L 3 0 L 13 0 L 16 3 L 24 3 L 27 0 L 142 0 L 145 3 L 145 19 L 142 22 L 27 22 L 24 25 L 16 25 L 13 22 L 3 22 L 0 19 Z" class="sb-looks sb-bevel"/><text x="0" y="10" class="sb-label " transform="translate(6 5)">switch</text><text x="0" y="10" class="sb-label " transform="translate(38 5)">costume</text><text x="0" y="10" class="sb-label " transform="translate(80 5)">to</text><g transform="translate(92 4)"><g width="47" height="14" class="sb-input sb-input-dropdown"><rect x="0" y="0" width="47" height="14" class="sb-looks sb-darker"/></g><text x="0" y="10" class="sb-label sb-literal-dropdown" transform="translate(4 0)">button</text><polygon points="7 0 3.5 4 0 0" fill="#000" opacity="0.6" transform="translate(37 5)"/></g></g></g><text x="0" y="10" class="sb-label " transform="translate(6 56)">else</text><g transform="translate(15 71)"><g transform="translate(0 0)"><path d="M 0 3 L 3 0 L 13 0 L 16 3 L 24 3 L 27 0 L 139 0 L 142 3 L 142 23 L 139 26 L 27 26 L 24 29 L 16 29 L 13 26 L 3 26 L 0 23 Z" class="sb-list sb-bevel"/><text x="0" y="10" class="sb-label " transform="translate(6 7)">add</text><g transform="translate(30 3)"><path d="M 10 0 L 49 0 A 10 10 0 0 1 49 20 L 10 20 A 10 10 0 0 1 10 0 Z" class="sb-motion sb-bevel"/><text x="0" y="10" class="sb-label " transform="translate(8 4)">x</text><text x="0" y="10" class="sb-label " transform="translate(17 4)">position</text></g><text x="0" y="10" class="sb-label " transform="translate(93 7)">to</text><g transform="translate(105 6)"><g width="31" height="14" class="sb-input sb-input-dropdown"><rect x="0" y="0" width="31" height="14" class="sb-list sb-darker"/></g><text x="0" y="10" class="sb-label sb-literal-dropdown" transform="translate(4 0)">list</text><polygon points="7 0 3.5 4 0 0" fill="#000" opacity="0.6" transform="translate(21 5)"/></g></g></g></g><g transform="translate(0 135)"><path d="M 0 3 L 3 0 L 13 0 L 16 3 L 24 3 L 27 0 L 95 0 L 98 3 L 98 23 L 95 26 L 27 26 L 24 29 L 16 29 L 13 26 L 3 26 L 0 23 Z" class="sb-motion sb-bevel"/><text x="0" y="10" class="sb-label " transform="translate(6 7)">move</text><g transform="translate(34 3)"><path d="M 10 0 L 20 0 A 10 10 0 0 1 20 20 L 10 20 A 10 10 0 0 1 10 0 Z" class="sb-variables sb-bevel"/><text x="0" y="10" class="sb-label " transform="translate(8 4)">foo</text></g><text x="0" y="10" class="sb-label " transform="translate(68 7)">steps</text></g><g transform="translate(0 161)"><path d="M 0 3 L 3 0 L 13 0 L 16 3 L 24 3 L 27 0 L 104 0 L 107 3 L 107 19 L 104 22 L 27 22 L 24 25 L 16 25 L 13 22 L 3 22 L 0 19 Z" class="sb-motion sb-bevel"/><text x="0" y="10" class="sb-label " transform="translate(6 5)">turn</text><use href="#turnLeft" transform="translate(27 6)"/><g transform="translate(46 4)"><path d="M 6.5 0 L 8.5 0 A 6.5 6.5 0 0 1 8.5 13 L 6.5 13 A 6.5 6.5 0 0 1 6.5 0 Z" class="sb-input sb-input-number"/><text x="0" y="10" class="sb-label sb-literal-number" transform="translate(5 0)">9</text></g><text x="0" y="10" class="sb-label " transform="translate(65 5)">degrees</text></g></g></g></g></g><style><![CDATA[.sb-label{font-family:Lucida Grande,Verdana,Arial,DejaVu Sans,sans-serif;font-weight:700;fill:#fff;font-size:10px;word-spacing:+1px}.sb-obsolete{fill:#d42828}.sb-motion{fill:#4a6cd4}.sb-looks{fill:#8a55d7}.sb-sound{fill:#bb42c3}.sb-pen{fill:#0e9a6c}.sb-events{fill:#c88330}.sb-control{fill:#e1a91a}.sb-sensing{fill:#2ca5e2}.sb-operators{fill:#5cb712}.sb-variables{fill:#ee7d16}.sb-list{fill:#cc5b22}.sb-custom{fill:#632d99}.sb-custom-arg{fill:#5947b1}.sb-extension{fill:#4b4a60}.sb-grey{fill:#969696}.sb-bevel{filter:url(#bevelFilter)}.sb-input{filter:url(#inputBevelFilter)}.sb-input-number,.sb-input-number-dropdown,.sb-input-string{fill:#fff}.sb-literal-dropdown,.sb-literal-number,.sb-literal-number-dropdown,.sb-literal-string{font-weight:400;font-size:9px;word-spacing:0}.sb-literal-number,.sb-literal-number-dropdown,.sb-literal-string{fill:#000}.sb-darker{filter:url(#inputDarkFilter)}.sb-outline{stroke:#fff;stroke-opacity:.2;stroke-width:2;fill:none}.sb-define-hat-cap{stroke:#632d99;stroke-width:1;fill:#8e2ec2}.sb-comment{fill:#ffffa5;stroke:#d0d1d2;stroke-width:1}.sb-comment-line{fill:#ffff80}.sb-comment-label{font-family:Helevetica,Arial,DejaVu Sans,sans-serif;font-weight:700;fill:#5c5d5f;word-spacing:0;font-size:12px}]]></style></svg>